HIERARCHY
ROOT Hips
{
	OFFSET 56.228901 0.591752 96.635101
	CHANNELS 6 Xposition Yposition Zposition Xrotation Yrotation Zrotation
	JOINT spine
	{
		OFFSET 0.000000 -0.458068 7.965683
		CHANNELS 3 Xrotation Yrotation Zrotation
		JOINT spine1
		{
			OFFSET 0.000000 -0.000002 10.243103
			CHANNELS 3 Xrotation Yrotation Zrotation
			JOINT spine2
			{
				OFFSET 0.000000 -0.000002 9.814751
				CHANNELS 3 Xrotation Yrotation Zrotation
				JOINT Neck
				{
					OFFSET 0.000000 -1.201384 25.198601
					CHANNELS 3 Xrotation Yrotation Zrotation
					JOINT Head
					{
						OFFSET 0.000000 -0.000001 7.613144
						CHANNELS 3 Xrotation Yrotation Zrotation
						End Site
						{
							OFFSET 0.000000 6.077327 18.428101
						}
					}
				}
				JOINT RightShoulder
				{
					OFFSET -4.132702 0.575449 10.599205
					CHANNELS 3 Xrotation Yrotation Zrotation
					JOINT RightArm
					{
						OFFSET 0.000000 -0.000002 13.901794
						CHANNELS 3 Xrotation Yrotation Zrotation
						JOINT RightArmRoll
						{
							OFFSET 0.000000 -0.000001 7.017883
							CHANNELS 3 Xrotation Yrotation Zrotation
							JOINT RightForeArm
							{
								OFFSET 0.000000 -0.000003 20.440598
								CHANNELS 3 Xrotation Yrotation Zrotation
								JOINT RightForeArmRoll
								{
									OFFSET 0.000000 -0.000001 7.875153
									CHANNELS 3 Xrotation Yrotation Zrotation
									JOINT RightHand
									{
										OFFSET 0.000000 -0.000003 15.803696
										CHANNELS 3 Xrotation Yrotation Zrotation
										End Site
										{
											OFFSET 0.000000 -0.000000 0.100006
										}
									}
								}
							}
						}
					}
				}
				JOINT LeftShoulder
				{
					OFFSET 4.132702 0.575449 10.599205
					CHANNELS 3 Xrotation Yrotation Zrotation
					JOINT LeftArm
					{
						OFFSET 0.000000 -0.000002 13.901794
						CHANNELS 3 Xrotation Yrotation Zrotation
						JOINT LeftArmRoll
						{
							OFFSET 0.000000 -0.000001 7.017883
							CHANNELS 3 Xrotation Yrotation Zrotation
							JOINT LeftForeArm
							{
								OFFSET 0.000000 -0.000003 20.440598
								CHANNELS 3 Xrotation Yrotation Zrotation
								JOINT LeftForeArmRoll
								{
									OFFSET 0.000000 -0.000001 7.875153
									CHANNELS 3 Xrotation Yrotation Zrotation
									JOINT LeftHand
									{
										OFFSET 0.000000 -0.000003 15.803696
										CHANNELS 3 Xrotation Yrotation Zrotation
										End Site
										{
											OFFSET 0.000000 -0.000000 0.100006
										}
									}
								}
							}
						}
					}
				}
			}
		}
	}
	JOINT RightUpLeg
	{
		OFFSET -7.060482 1.086100 -1.294701
		CHANNELS 3 Xrotation Yrotation Zrotation
		JOINT RightUpLegRoll
		{
			OFFSET 0.000000 -0.000003 18.530800
			CHANNELS 3 Xrotation Yrotation Zrotation
			JOINT RightLeg
			{
				OFFSET 0.000000 0.000004 -22.947601
				CHANNELS 3 Xrotation Yrotation Zrotation
				JOINT RightLegRoll
				{
					OFFSET 0.000000 -0.000004 23.022598
					CHANNELS 3 Xrotation Yrotation Zrotation
					JOINT RightFoot
					{
						OFFSET 0.000000 -0.000003 19.162506
						CHANNELS 3 Xrotation Yrotation Zrotation
						JOINT RightToeBase
						{
							OFFSET 0.000000 -0.000003 16.018799
							CHANNELS 3 Xrotation Yrotation Zrotation
							End Site
							{
								OFFSET 0.006790 0.894205 7.757812
							}
						}
					}
				}
			}
		}
	}
	JOINT LeftUpLeg
	{
		OFFSET 7.060482 1.086100 -1.294701
		CHANNELS 3 Xrotation Yrotation Zrotation
		JOINT LeftUpLegRoll
		{
			OFFSET 0.000000 -0.000003 18.530899
			CHANNELS 3 Xrotation Yrotation Zrotation
			JOINT LeftLeg
			{
				OFFSET 0.000000 -0.000004 22.947502
				CHANNELS 3 Xrotation Yrotation Zrotation
				JOINT LeftLegRoll
				{
					OFFSET 0.000000 -0.000004 23.235504
					CHANNELS 3 Xrotation Yrotation Zrotation
					JOINT LeftFoot
					{
						OFFSET 0.000000 -0.000003 18.949600
						CHANNELS 3 Xrotation Yrotation Zrotation
						JOINT LeftToeBase
						{
							OFFSET 0.000000 -0.000003 16.018799
							CHANNELS 3 Xrotation Yrotation Zrotation
							End Site
							{
								OFFSET -0.030430 0.894206 7.757812
							}
						}
					}
				}
			}
		}
	}
}
MOTION
Frames: 8
Frame Time: 0.041667
56.017899 1.668763 96.859390 -5.606686 -0.988562 7.264898 -0.589886 -0.006077 -0.208288 2.823021 -0.016333 -0.416525 4.468070 -0.021271 -0.416267 8.540889 7.306306 -0.396771 20.897198 -11.674802 2.390347 -9.385837 -68.223659 -11.642733 -47.263878 -112.178808 -37.547773 -0.000000 -0.000000 0.000000 13.861130 -6.942074 -0.117654 -0.000005 -0.000000 -3.005040 -5.000194 -7.999115 0.000095 -12.843351 63.603644 15.352044 -43.541940 115.656440 43.585203 -0.000002 0.000015 -0.000001 10.734532 11.835404 -0.474795 -0.000001 0.000003 3.000001 -5.000193 7.998736 -0.000179 2.884398 -177.817760 3.792685 -179.999991 0.000005 -1.144994 173.496395 -3.156599 -0.552666 -0.000003 -0.000001 0.080724 69.367285 6.894121 2.111374 25.456957 -7.355615 -0.000000 2.499378 177.607280 0.310881 -0.000020 -0.000004 -1.164709 -7.673800 1.233854 0.306404 -0.000002 0.000001 -0.131649 69.737113 -6.896002 -2.074114 25.456957 7.355614 -0.000011 
56.029800 1.675003 96.848999 -5.594157 -0.989553 7.260120 -0.590971 -0.006077 -0.207995 2.820850 -0.016233 -0.415941 4.465901 -0.021162 -0.415688 8.548363 7.315712 -0.400493 20.862616 -11.680517 2.384102 -9.386245 -68.230912 -11.643610 -47.289815 -112.187257 -37.627212 0.000000 0.000001 -0.000000 13.933989 -6.975116 -0.110147 -0.000004 -0.000000 -3.005040 -5.000196 -7.999114 0.000095 -12.819647 63.608022 15.324885 -43.577095 115.679554 43.653785 -0.000000 0.000015 -0.000001 10.766971 11.854045 -0.479560 -0.000001 0.000002 3.000001 -5.000192 7.998735 -0.000179 2.876705 -177.816762 3.792742 -179.999991 0.000005 -1.144994 173.511271 -3.159665 -0.552185 -0.000003 -0.000000 0.080723 69.359137 6.894099 2.111379 25.456957 -7.355615 0.000000 2.479310 177.608237 0.311470 -0.000020 -0.000004 -1.164709 -7.684113 1.237818 0.306436 -0.000002 0.000000 -0.132001 69.743355 -6.895980 -2.074220 25.456957 7.355611 -0.000010 
56.024799 1.703110 96.847099 -5.581383 -0.990584 7.255360 -0.592107 -0.006077 -0.207658 2.818580 -0.016137 -0.415273 4.463621 -0.021055 -0.415023 8.556359 7.325562 -0.404626 20.827287 -11.687132 2.377611 -9.386542 -68.237558 -11.644326 -47.315715 -112.195720 -37.707555 0.000000 -0.000000 0.000000 14.005278 -7.009010 -0.102479 -0.000003 -0.000001 -3.005040 -5.000199 -7.999115 0.000094 -12.795495 63.612550 15.297221 -43.613971 115.702079 43.725290 -0.000001 0.000015 -0.000000 10.798851 11.873777 -0.484483 0.000002 0.000002 3.000001 -5.000191 7.998735 -0.000179 2.868974 -177.814727 3.792806 -179.999991 0.000005 -1.144994 173.526598 -3.163738 -0.551791 -0.000003 -0.000000 0.080722 69.350572 6.894091 2.111308 25.456957 -7.355615 0.000001 2.458621 177.609193 0.312044 -0.000020 -0.000004 -1.164710 -7.695079 1.241888 0.306485 -0.000002 0.000000 -0.132389 69.749817 -6.895997 -2.074222 25.456959 7.355612 -0.000009 
56.026402 1.697301 96.851799 -5.568459 -0.991643 7.250624 -0.593285 -0.006077 -0.207297 2.816220 -0.016044 -0.414548 4.461272 -0.020949 -0.414302 8.564711 7.335699 -0.409040 20.791598 -11.694244 2.370952 -9.386865 -68.243999 -11.645048 -47.343227 -112.203431 -37.790330 -0.000001 -0.000000 0.000000 14.075692 -7.043480 -0.094648 -0.000005 -0.000001 -3.005040 -5.000194 -7.999115 0.000095 -12.771034 63.617092 15.269207 -43.649724 115.725452 43.796215 -0.000000 0.000015 -0.000000 10.830452 11.894202 -0.489533 0.000000 0.000003 3.000001 -5.000192 7.998736 -0.000179 2.861229 -177.813730 3.792793 -179.999991 0.000005 -1.144994 173.542280 -3.167812 -0.551374 -0.000003 -0.000001 0.080721 69.341699 6.894099 2.111362 25.456957 -7.355614 0.000001 2.437499 177.610163 0.312612 -0.000020 -0.000004 -1.164710 -7.706492 1.246047 0.306554 -0.000002 0.000000 -0.132799 69.756490 -6.895984 -2.074204 25.456959 7.355616 -0.000012 
56.032001 1.691415 96.851501 -5.555439 -0.992719 7.245898 -0.594486 -0.006077 -0.206916 2.813831 -0.015954 -0.413790 4.458880 -0.020843 -0.413548 8.573272 7.346012 -0.413621 20.755511 -11.701663 2.364152 -9.387117 -68.250146 -11.645683 -47.368912 -112.211832 -37.871510 0.000001 0.000000 -0.000000 14.145434 -7.078278 -0.086710 -0.000005 -0.000001 -3.005040 -5.000198 -7.999113 0.000095 -12.746406 63.621750 15.241005 -43.685572 115.748907 43.867686 -0.000002 0.000015 -0.000001 10.861673 11.915132 -0.494635 0.000000 0.000003 3.000001 -5.000192 7.998735 -0.000179 2.853466 -177.811722 3.792816 -179.999991 0.000005 -1.144994 173.558153 -3.170899 -0.550834 -0.000003 -0.000000 0.080720 69.332711 6.894101 2.111323 25.456957 -7.355615 0.000000 2.416138 177.611133 0.313173 -0.000020 -0.000004 -1.164710 -7.718168 1.250243 0.306629 -0.000002 0.000000 -0.133224 69.763170 -6.896006 -2.074195 25.456955 7.355612 -0.000010 
56.029305 1.696032 96.848106 -5.542397 -0.993801 7.241180 -0.595688 -0.006077 -0.206532 2.811421 -0.015864 -0.413023 4.456471 -0.020737 -0.412786 8.581884 7.356362 -0.418244 20.719331 -11.709185 2.357321 -9.387368 -68.256293 -11.646328 -47.394584 -112.220233 -37.952776 0.000000 0.000000 -0.000000 14.215084 -7.113153 -0.078670 -0.000002 -0.000000 -3.005040 -5.000198 -7.999114 0.000095 -12.721756 63.626409 15.212763 -43.722817 115.771652 43.940796 -0.000001 0.000015 -0.000000 10.892906 11.936046 -0.499761 -0.000000 0.000003 3.000001 -5.000193 7.998736 -0.000179 2.845707 -177.809700 3.792829 -179.999991 0.000005 -1.144994 173.574095 -3.174962 -0.550399 -0.000003 -0.000000 0.080718 69.323620 6.894095 2.111289 25.456957 -7.355615 0.000000 2.394720 177.612089 0.313731 -0.000020 -0.000004 -1.164710 -7.729914 1.254450 0.306708 -0.000002 0.000000 -0.133650 69.769938 -6.895996 -2.074172 25.456955 7.355612 -0.000009 
56.023399 1.718339 96.848892 -5.529395 -0.994878 7.236455 -0.596882 -0.006077 -0.206155 2.809030 -0.015773 -0.412273 4.454081 -0.020631 -0.412042 8.590395 7.366624 -0.422789 20.683344 -11.716592 2.350566 -9.387666 -68.262543 -11.647008 -47.420228 -112.228635 -38.033840 -0.000000 0.000000 0.000000 14.284953 -7.147855 -0.070570 -0.000005 -0.000001 -3.005040 -5.000198 -7.999114 0.000095 -12.697153 63.631053 15.184598 -43.758389 115.795052 44.011885 -0.000000 0.000014 0.000000 10.924233 11.956754 -0.504886 -0.000000 0.000003 3.000001 -5.000194 7.998735 -0.000179 2.837951 -177.808689 3.792802 -179.999991 0.000005 -1.144994 173.589927 -3.179038 -0.548970 -0.000003 -0.000000 0.080716 69.314645 6.894093 2.111245 25.456959 -7.355616 0.000000 2.373419 177.613045 0.314292 -0.000020 -0.000004 -1.164709 -7.741529 1.258637 0.306786 -0.000002 0.000001 -0.134072 69.776618 -6.895978 -2.074254 25.456955 7.355610 -0.000009 
56.008499 1.720832 96.842491 -5.516518 -0.995939 7.231708 -0.598046 -0.006077 -0.205802 2.806701 -0.015680 -0.411564 4.451751 -0.020525 -0.411337 8.598639 7.376684 -0.427137 20.647727 -11.723497 2.343906 -9.387979 -68.269086 -11.647734 -47.445868 -112.237043 -38.114443 0.000000 0.000000 0.000000 14.355632 -7.182128 -0.062428 -0.000002 -0.000001 -3.005040 -5.000197 -7.999114 0.000095 -12.672787 63.635670 15.156690 -43.793725 115.818411 44.082259 -0.000000 0.000015 0.000000 10.955956 11.977049 -0.510010 0.000001 0.000002 3.000001 -5.000195 7.998735 -0.000179 2.830211 -177.806681 3.792843 -179.999991 0.000005 -1.144994 173.605514 -3.183112 -0.548551 -0.000003 -0.000000 0.080715 69.305868 6.894099 2.111293 25.456957 -7.355615 0.000001 2.352430 177.614001 0.314858 -0.000020 -0.000004 -1.164709 -7.752814 1.262765 0.306857 -0.000002 0.000000 -0.134476 69.783182 -6.895995 -2.074147 25.456955 7.355614 -0.000011 
